:FULLY-SPECIFIED
:FORCE-ALL-JOINTS-BE-3DOF
:DEGREES
3058
root -1.60446 15.9896 -34.0392 7.72478 0.234581 0.561659
lfemur -35.4412 3.8782 -3.67707
ltibia 58.9869 -0 0
lfoot -8.76139 2.277 0.454733
ltoes -36.5518 0 0
rfemur -35.5378 -6.14841 25.3277
rtibia 60.5216 -0 0
rfoot -19.4809 -28.022 0.03197
rtoes -7.98407 0 0
lowerback 12.6005 0.407267 -1.2259
upperback -1.32332 0.485614 1.55561
thorax -8.51988 0.333962 2.26798
lowerneck 3.32742 -8.85113 -11.451
upperneck -2.80523 -12.1168 9.11937
head -0.0587593 -6.10174 4.80715
lclavicle -2.93717e-14 5.57508e-16 -6.75742e-31
lhumerus 13.8525 -42.777 87.0813
lradius 68.3409 -0 0
lwrist -5.83454 0 0
lhand -28.2786 31.8696 0.00321875
lfingers 7.12502 -0 0
lthumb -1.65501 61.8433 0.00310994
rclavicle -2.93717e-14 5.57508e-16 -6.75742e-31
rhumerus 20.4121 48.5384 -52.1557
rradius 103.628 -0 0
rwrist -43.9002 0 0
rhand -5.87036 -25.8801 -0.00250408
rfingers 7.12502 -0 0
rthumb 19.957 -54.8753 -0.00239042
3059
root -1.5513 16.0005 -34.02 7.60044 0.94595 0.568641
lfemur -35.0662 3.74768 -3.76864
ltibia 58.2471 -0 0
lfoot -9.36749 1.8203 0.440026
ltoes -37.2093 0 0
rfemur -35.2323 -5.92464 25.0123
rtibia 60.4301 -0 0
rfoot -19.394 -27.7985 0.0309385
rtoes -8.55397 0 0
lowerback 12.5284 0.430233 -1.15697
upperback -1.33267 0.526391 1.54393
thorax -8.49013 0.349961 2.2079
lowerneck 3.22048 -8.69663 -11.3444
upperneck -2.659 -11.9012 8.9949
head -0.0352464 -5.99196 4.76598
lclavicle -2.98022e-14 -3.95957e-16 -6.53946e-31
lhumerus 12.2921 -43.1367 87.7479
lradius 68.6478 -0 0
lwrist -5.55678 0 0
lhand -28.2693 32.08 0.0031149
lfingers 7.12502 -0 0
lthumb -1.64604 62.0539 0.0030096
rclavicle -2.98022e-14 -3.95957e-16 -6.53946e-31
rhumerus 17.8731 49.1549 -53.745
rradius 104.353 -0 0
rwrist -43.4619 0 0
rhand -5.88047 -25.7298 -0.0024233
rfingers 7.12502 -0 0
rthumb 19.9473 -54.7259 -0.0023133
3060
root -1.49906 16.0113 -34.001 7.47827 1.64522 0.574
lfemur -34.6974 3.61996 -3.85948
ltibia 57.5199 -0 0
lfoot -9.96313 1.37155 0.420863
ltoes -37.8557 0 0
rfemur -34.9334 -5.70306 24.7036
rtibia 60.3401 -0 0
rfoot -19.3086 -27.5788 0.0295941
rtoes -9.11417 0 0
lowerback 12.4577 0.452893 -1.08924
upperback -1.34187 0.566473 1.53245
thorax -8.46089 0.365718 2.14885
lowerneck 3.11568 -8.54458 -11.2399
upperneck -2.51585 -11.6889 8.8732
head -0.0122158 -5.88403 4.72557
lclavicle -3.02253e-14 -1.33319e-15 -6.25539e-31
lhumerus 10.744 -43.4773 88.4199
lradius 68.9494 -0 0
lwrist -5.28375 0 0
lhand -28.2602 32.2869 0.00297955
lfingers 7.12502 -0 0
lthumb -1.63722 62.2609 0.00287883
rclavicle -3.02253e-14 -1.33319e-15 -6.25539e-31
rhumerus 15.3225 49.7146 -55.3658
rradius 105.066 -0 0
rwrist -43.0311 0 0
rhand -5.89042 -25.5819 -0.00231801
rfingers 7.12502 -0 0
rthumb 19.9377 -54.5791 -0.00221279
3061
root -1.44797 16.0218 -33.9825 7.35884 2.32893 0.5778
lfemur -34.3367 3.49566 -3.94907
ltibia 56.8089 -0 0
lfoot -10.5454 0.933017 0.397618
ltoes -38.4876 0 0
rfemur -34.6423 -5.48484 24.4029
rtibia 60.2521 -0 0
rfoot -19.225 -27.364 0.0279629
rtoes -9.6619 0 0
lowerback 12.3885 0.475128 -1.02304
upperback -1.35087 0.605659 1.52121
thorax -8.43233 0.381153 2.09111
lowerneck 3.01353 -8.39573 -11.138
upperneck -2.37644 -11.481 8.75482
head 0.0102237 -5.77849 4.68611
lclavicle -3.06391e-14 -2.24955e-15 -5.91073e-31
lhumerus 9.21667 -43.7972 89.0926
lradius 69.2443 -0 0
lwrist -5.0168 0 0
lhand -28.2513 32.4891 0.00281534
lfingers 7.12502 -0 0
lthumb -1.62859 62.4632 0.00272017
rclavicle -3.06391e-14 -2.24955e-15 -5.91073e-31
rhumerus 12.7781 50.2156 -57.004
rradius 105.763 -0 0
rwrist -42.6099 0 0
rhand -5.90014 -25.4374 -0.00219026
rfingers 7.12502 -0 0
rthumb 19.9283 -54.4356 -0.00209085
3062
root -1.39831 16.032 -33.9645 7.24271 2.99361 0.580128
lfemur -33.986 3.37536 -4.03691
ltibia 56.1177 -0 0
lfoot -11.1112 0.506936 0.37075
ltoes -39.1019 0 0
rfemur -34.3606 -5.27127 24.1119
rtibia 60.1666 -0 0
rfoot -19.1439 -27.1552 0.0260771
rtoes -10.1944 0 0
lowerback 12.3213 0.496821 -0.958717
upperback -1.35963 0.643754 1.51028
thorax -8.40457 0.396185 2.035
lowerneck 2.91452 -8.25086 -11.0393
upperneck -2.24143 -11.2787 8.64032
head 0.0319644 -5.67587 4.64779
lclavicle -3.10413e-14 -3.1404e-15 -5.51222e-31
lhumerus 7.71924 -44.0957 89.7611
lradius 69.531 -0 0
lwrist -4.75729 0 0
lhand -28.2426 32.6857 0.00262549
lfingers 7.12502 -0 0
lthumb -1.62021 62.6599 0.00253674
rclavicle -3.10413e-14 -3.1404e-15 -5.51222e-31
rhumerus 10.2592 50.6569 -58.6447
rradius 106.441 -0 0
rwrist -42.2004 0 0
rhand -5.90959 -25.2969 -0.00204257
rfingers 7.12502 -0 0
rthumb 19.9193 -54.2961 -0.00194985
3063
root -1.35033 16.0419 -33.9471 7.13047 3.63581 0.581096
lfemur -33.6468 3.2596 -4.12249
ltibia 55.4498 -0 0
lfoot -11.6576 0.0955448 0.340796
ltoes -39.6954 0 0
rfemur -34.0895 -5.06358 23.8317
rtibia 60.0839 -0 0
rfoot -19.0654 -26.9535 0.0239741
rtoes -10.7089 0 0
lowerback 12.2564 0.517852 -0.896592
upperback -1.3681 0.680557 1.49971
thorax -8.37777 0.410735 1.98079
lowerneck 2.81913 -8.11072 -10.9442
upperneck -2.11149 -11.083 8.53025
head 0.0529002 -5.57672 4.61082
lclavicle -3.14299e-14 -4.00111e-15 -5.0678e-31
lhumerus 6.26087 -44.372 90.4204
lradius 69.808 -0 0
lwrist -4.5066 0 0
lhand -28.2342 32.8757 0.00241376
lfingers 7.12502 -0 0
lthumb -1.61211 62.85 0.00233217
rclavicle -3.14299e-14 -4.00111e-15 -5.0678e-31
rhumerus 7.78579 51.0388 -60.2717
rradius 107.096 -0 0
rwrist -41.8047 0 0
rhand -5.91872 -25.1612 -0.00187786
rfingers 7.12502 -0 0
rthumb 19.9105 -54.1613 -0.00179262
3064
root -1.30429 16.0514 -33.9303 7.02268 4.25205 0.58084
lfemur -33.3213 3.14904 -4.20522
ltibia 54.809 -0 0
lfoot -12.1818 -0.298933 0.308367
ltoes -40.265 0 0
rfemur -33.8305 -4.86305 23.5639
rtibia 60.0046 -0 0
rfoot -18.9902 -26.7599 0.0216964
rtoes -11.2026 0 0
lowerback 12.1941 0.538098 -0.837
upperback -1.37624 0.715872 1.48957
thorax -8.35206 0.424721 1.92877
lowerneck 2.72785 -7.97611 -10.8532
upperneck -1.98722 -10.895 8.4251
head 0.0729261 -5.48156 4.57537
lclavicle -3.18028e-14 -4.82704e-15 -4.58646e-31
lhumerus 4.85095 -44.6257 91.065
lradius 70.0737 -0 0
lwrist -4.26601 0 0
lhand -28.2262 33.058 0.00218446
lfingers 7.12502 -0 0
lthumb -1.60434 63.0324 0.00211061
rclavicle -3.18028e-14 -4.82704e-15 -4.58646e-31
rhumerus 5.37873 51.3631 -61.8683
rradius 107.724 -0 0
rwrist -41.425 0 0
rhand -5.92748 -25.0309 -0.00169947
rfingers 7.12502 -0 0
rthumb 19.9021 -54.0319 -0.00162233
